<mxfile host="65bd71144e">
    <diagram id="hXaumg02nLYJtQVTglpe" name="Page-1">
        <mxGraphModel dx="674" dy="308" grid="1" gridSize="10" guides="1" tooltips="1" connect="1" arrows="1" fold="1" page="1" pageScale="1" pageWidth="850" pageHeight="1100" math="0" shadow="0">
            <root>
                <mxCell id="0"/>
                <mxCell id="1" parent="0"/>
                <mxCell id="2" value="Ball" style="swimlane;fontStyle=0;childLayout=stackLayout;horizontal=1;startSize=26;fillColor=#FFFFFF;horizontalStack=0;resizeParent=1;resizeParentMax=0;resizeLast=0;collapsible=1;marginBottom=0;html=1;shadow=0;" vertex="1" parent="1">
                    <mxGeometry x="351" y="140" width="310" height="150" as="geometry"/>
                </mxCell>
                <mxCell id="3" value="- position: vektor2&lt;br&gt;&lt;br&gt;- velocity: vektor2&lt;br&gt;&lt;br&gt;- radius: int&lt;br&gt;&lt;br&gt;- color: str" style="text;strokeColor=none;fillColor=#FFFFFF;align=left;verticalAlign=top;spacingLeft=4;spacingRight=4;overflow=hidden;rotatable=0;points=[[0,0.5],[1,0.5]];portConstraint=eastwest;whiteSpace=wrap;html=1;shadow=0;" vertex="1" parent="2">
                    <mxGeometry y="26" width="310" height="124" as="geometry"/>
                </mxCell>
                <mxCell id="11" value="&amp;nbsp;Ball( position, velocity, radius, color )&lt;br&gt;&lt;br&gt;&amp;nbsp;+ get position(): vektor2&lt;br&gt;&amp;nbsp;+ get velocity(): vektor2&lt;br&gt;&amp;nbsp;+ checkCollision( blockPosition: vektor2[] ): void&lt;br&gt;&amp;nbsp;+ update( deltaTime: float ): void&lt;br&gt;&amp;nbsp;+ draw(): void" style="rounded=0;whiteSpace=wrap;html=1;align=left;" vertex="1" parent="1">
                    <mxGeometry x="351" y="290" width="310" height="120" as="geometry"/>
                </mxCell>
            </root>
        </mxGraphModel>
    </diagram>
</mxfile>